<svg xmlns="http://www.w3.org/2000/svg" xmlns:xlink="http://www.w3.org/1999/xlink" width="256" height="256" viewBox="0 0 256 256">
  <defs>
    <radialGradient id="radial-gradient" cx="0.284" cy="0.807" r="0.973" gradientTransform="matrix(0.799, -0.601, 0.747, 0.994, -0.546, 0.176)" gradientUnits="objectBoundingBox">
      <stop offset="0" stop-color="#040404"/>
      <stop offset="1" stop-color="#555"/>
    </radialGradient>
    <clipPath id="clip-black">
      <rect width="256" height="256"/>
    </clipPath>
  </defs>
  <g id="black" clip-path="url(#clip-black)">
    <path id="Union_1" data-name="Union 1" d="M133.221,145.9a25.175,25.175,0,0,1-8.61-6.16L84,95.641l-40.61,44.1a25.176,25.176,0,0,1-8.61,6.16,24.151,24.151,0,0,1-9.578,1.955h0a25.73,25.73,0,0,1-17.41-6.844,24.125,24.125,0,0,1-5.656-7.9A25.185,25.185,0,0,1,0,122.8V30.617A25.185,25.185,0,0,1,2.134,20.312a24.156,24.156,0,0,1,5.657-7.9A25.734,25.734,0,0,1,25.2,5.567,24.151,24.151,0,0,1,34.781,7.52a25.172,25.172,0,0,1,8.609,6.161L84,57.777l40.61-44.1a25.166,25.166,0,0,1,8.61-6.161A24.149,24.149,0,0,1,142.8,5.567,25.739,25.739,0,0,1,160.21,12.41a24.154,24.154,0,0,1,5.657,7.9A25.189,25.189,0,0,1,168,30.617V122.8a25.181,25.181,0,0,1-2.134,10.3,24.143,24.143,0,0,1-5.657,7.9,25.73,25.73,0,0,1-17.41,6.844A24.147,24.147,0,0,1,133.221,145.9ZM138.395,28.22,99.755,72.082a7.014,7.014,0,0,0,0,9.255l38.64,43.862a6.854,6.854,0,0,0,5.193,2.387,6.97,6.97,0,0,0,7.06-7.014V32.847a6.872,6.872,0,0,0-2.184-5.1,7.243,7.243,0,0,0-4.875-1.912A6.854,6.854,0,0,0,138.395,28.22ZM19.315,32.847v87.725a6.97,6.97,0,0,0,7.06,7.014,6.854,6.854,0,0,0,5.193-2.387l38.64-43.862a7.014,7.014,0,0,0,0-9.255L31.568,28.22a6.851,6.851,0,0,0-5.193-2.387A6.971,6.971,0,0,0,19.315,32.847Z" transform="translate(48 54.586)" fill="url(#radial-gradient)"/>
  </g>
</svg>
